<?xml version="1.0" encoding="UTF-8" standalone="no"?>
<!-- Generator: Adobe Illustrator 22.0.0, SVG Export Plug-In . SVG Version: 6.00 Build 0)  -->

<svg
   xmlns:dc="http://purl.org/dc/elements/1.1/"
   xmlns:cc="http://creativecommons.org/ns#"
   xmlns:rdf="http://www.w3.org/1999/02/22-rdf-syntax-ns#"
   xmlns:svg="http://www.w3.org/2000/svg"
   xmlns="http://www.w3.org/2000/svg"
   xmlns:sodipodi="http://sodipodi.sourceforge.net/DTD/sodipodi-0.dtd"
   xmlns:inkscape="http://www.inkscape.org/namespaces/inkscape"
   version="1.0"
   id="Capa_1"
   x="0px"
   y="0px"
   viewBox="0 0 512 512"
   xml:space="preserve"
   sodipodi:docname="logo_thumbnail.svg"
   width="512"
   height="512"
   inkscape:version="0.92.3 (2405546, 2018-03-11)"><metadata
   id="metadata71"><rdf:RDF><cc:Work
       rdf:about=""><dc:format>image/svg+xml</dc:format><dc:type
         rdf:resource="http://purl.org/dc/dcmitype/StillImage" /><dc:title></dc:title></cc:Work></rdf:RDF></metadata><defs
   id="defs69" /><sodipodi:namedview
   pagecolor="#ffffff"
   bordercolor="#666666"
   borderopacity="1"
   objecttolerance="10"
   gridtolerance="10"
   guidetolerance="10"
   inkscape:pageopacity="0"
   inkscape:pageshadow="2"
   inkscape:window-width="1366"
   inkscape:window-height="705"
   id="namedview67"
   showgrid="false"
   inkscape:zoom="0.5312"
   inkscape:cx="526.21536"
   inkscape:cy="226.59873"
   inkscape:window-x="-8"
   inkscape:window-y="-8"
   inkscape:window-maximized="1"
   inkscape:current-layer="g64" />
<style
   type="text/css"
   id="style2">
	.st0{fill:#592B81;}
	.st1{fill:#592C81;}
	.st2{fill:#983DBA;}
	.st3{fill:#592C82;}
	.st4{fill:#5A2E83;}
	.st5{fill:#592D82;}
	.st6{fill:#5A2D83;}
	.st7{fill:#5A2D82;}
	.st8{fill:#5A2E82;}
	.st9{fill:#F2EFF5;}
	.st10{fill:#E7E1ED;}
	.st11{fill:#FEFEFE;}
	.st12{fill:#FBFAFC;}
	.st13{fill:#FDFDFE;}
	.st14{fill:#FAF9FB;}
	.st15{fill:#F1EDF4;}
	.st16{fill:#5D3085;}
	.st17{fill:#F8F7FA;}
</style>
<g
   id="g64"
   transform="translate(0,12)">
	<path
   class="st0"
   d="m 321.4178,195.84509 c 2.29944,-9.63292 4.2853,-18.87532 6.68927,-27.85737 5.64408,-21.4788 11.39268,-42.82744 17.55937,-64.04591 2.19492,-7.419947 2.40395,-13.668329 -2.50848,-18.875316 C 338.03648,79.46899 332.915,81.942308 327.79352,85.847551 267.17191,132.97076 213.86669,190.76828 167.77337,258.84959 c -9.30228,13.79851 -17.87293,28.50825 -27.17521,42.30674 -4.59888,6.76908 -4.59888,11.71573 1.04522,17.18305 5.95762,5.7277 8.25706,-1.30173 10.66103,-4.94662 18.18647,-26.94613 37.73171,-52.20002 59.15831,-75.24094 26.23453,-28.24788 54.55947,-52.72071 87.48327,-70.94514 -3.65819,16.79252 -7.21187,32.28329 -8.77968,48.29477 -1.14971,11.71572 -2.09041,23.43143 -3.34465,35.14714 -1.04518,9.89328 1.04521,18.09428 8.36162,23.0409 7.00284,4.6863 13.27403,2.34316 19.44071,-3.38453 32.40121,-30.2005 64.90694,-60.27085 97.41266,-90.34117 26.44357,-24.47283 52.78261,-48.94566 79.95782,-74.06937 7.62997,21.0883 11.60172,42.43693 12.43789,64.56661 2.50847,66.1287 -18.50005,119.63047 -60.51709,158.81302 -14.31925,13.40798 -19.44072,29.41946 -21.21757,48.94565 -4.07629,45.82146 6.2712,78.88581 34.17804,113.25192 -33.75997,24.73317 -84.45217,4.94661 -121.13871,-47.64392 -11.18364,20.30724 -25.60739,36.05836 -43.58484,45.95163 -51.42384,28.24791 -110.47766,0.65089 -134.20371,-63.0045 -2.40396,-6.37854 -4.59888,-8.33117 -10.452,-7.94064 C 75.168618,424.82222 20.922733,373.1429 5.9763707,284.75435 -7.9247927,202.74434 35.555535,115.26699 100.77604,94.569253 c 6.27119,-1.952622 9.5113,-5.467336 12.12431,-13.017473 23.51702,-69.51323 91.45502,-98.802516 145.70091,-63.004501 5.43504,3.64489 8.98873,3.384543 14.21473,-0.520698 72.32786,-55.584555 165.35067,-27.4668413 209.14457,62.483804 2.92655,6.118213 2.92655,8.982049 -2.40397,12.496763 -51.73741,34.105742 -103.47483,68.471842 -155.21224,102.707742 -0.62711,0.1302 -1.25424,0 -2.92655,0.1302 z"
   id="path4"
   inkscape:connector-curvature="0"
   style="fill:#592b81;stroke-width:1.1664412" />
	
	
	
	
	
	
	
	
	
	
	
	
	
	
	
	
	
	
	<path
   class="st9"
   d="m 2474.6,120.6 c -3.8,-2.3 -5.1,-4.3 -6.4,-8 3.3,1.9 5.2,3.4 6.4,8 z"
   id="path42"
   inkscape:connector-curvature="0"
   style="fill:#f2eff5" />
	<path
   class="st10"
   d="m 2480.6,130 c 2.9,1.3 4.1,2.7 2.9,5.2 -2.5,-0.7 -3,-2.4 -2.9,-5.2 z"
   id="path44"
   inkscape:connector-curvature="0"
   style="fill:#e7e1ed" />
	
	
	
	
	
	
	
	
	
</g>
</svg>