<?xml version="1.0" encoding="utf-8"?>
<!-- Generator: Adobe Illustrator 22.0.0, SVG Export Plug-In . SVG Version: 6.00 Build 0)  -->
<svg version="1.0" id="Capa_1" xmlns="http://www.w3.org/2000/svg" xmlns:xlink="http://www.w3.org/1999/xlink" x="0px" y="0px"
	 viewBox="0 0 2500 500" style="enable-background:new 0 0 2500 500;" xml:space="preserve">
<style type="text/css">
	.st0{fill:#592B81;}
	.st1{fill:#592C81;}
	.st2{fill:#983DBA;}
	.st3{fill:#592C82;}
	.st4{fill:#5A2E83;}
	.st5{fill:#592D82;}
	.st6{fill:#5A2D83;}
	.st7{fill:#5A2D82;}
	.st8{fill:#5A2E82;}
	.st9{fill:#F2EFF5;}
	.st10{fill:#E7E1ED;}
	.st11{fill:#FEFEFE;}
	.st12{fill:#FBFAFC;}
	.st13{fill:#FDFDFE;}
	.st14{fill:#FAF9FB;}
	.st15{fill:#F1EDF4;}
	.st16{fill:#5D3085;}
	.st17{fill:#F8F7FA;}
</style>
<g>
	<path class="st0" d="M2308.8,205.4c2.2-7.4,4.1-14.5,6.4-21.4c5.4-16.5,10.9-32.9,16.8-49.2c2.1-5.7,2.3-10.5-2.4-14.5
		c-4.9-4.3-9.8-2.4-14.7,0.6c-58,36.2-109,80.6-153.1,132.9c-8.9,10.6-17.1,21.9-26,32.5c-4.4,5.2-4.4,9,1,13.2
		c5.7,4.4,7.9-1,10.2-3.8c17.4-20.7,36.1-40.1,56.6-57.8c25.1-21.7,52.2-40.5,83.7-54.5c-3.5,12.9-6.9,24.8-8.4,37.1
		c-1.1,9-2,18-3.2,27c-1,7.6,1,13.9,8,17.7c6.7,3.6,12.7,1.8,18.6-2.6c31-23.2,62.1-46.3,93.2-69.4c25.3-18.8,50.5-37.6,76.5-56.9
		c7.3,16.2,11.1,32.6,11.9,49.6c2.4,50.8-17.7,91.9-57.9,122c-13.7,10.3-18.6,22.6-20.3,37.6c-3.9,35.2,6,60.6,32.7,87
		c-32.3,19-80.8,3.8-115.9-36.6c-10.7,15.6-24.5,27.7-41.7,35.3c-49.2,21.7-105.7,0.5-128.4-48.4c-2.3-4.9-4.4-6.4-10-6.1
		c-69.2,4.6-121.1-35.1-135.4-103c-13.3-63,28.3-130.2,90.7-146.1c6-1.5,9.1-4.2,11.6-10c22.5-53.4,87.5-75.9,139.4-48.4
		c5.2,2.8,8.6,2.6,13.6-0.4c69.2-42.7,158.2-21.1,200.1,48c2.8,4.7,2.8,6.9-2.3,9.6c-49.5,26.2-99,52.6-148.5,78.9
		C2311,205.4,2310.4,205.3,2308.8,205.4z"/>
	<path class="st1" d="M723.9,159.9c4.7-11.5,12.2-19.5,24.5-22.4c23.5-5.6,43.1,9.6,43.2,33.8c0.1,51.6,0,103.1,0,154.7
		c0,19.3-9.5,31.8-26.8,35.5c-17.3,3.7-32.4-4.5-40-21.5c-0.3-0.7-0.6-1.5-1.3-2.9c-12.8,12.9-28,20.7-45.6,24.2
		c-61.6,12.5-117.4-26.1-127-88.2c-4.8-31.2-2.1-61.3,14.5-89c18.4-30.6,46.3-46.3,81.5-49.5C676,132,701.9,139.2,723.9,159.9z"/>
	<path class="st1" d="M369.4,155.8c30.2-25,62.6-27.6,96.1-14.5c32.9,12.9,48.7,39.8,51.8,73.9c3.4,38.1,1.5,76.4,1,114.6
		c-0.3,20.3-16.3,33.2-36.3,32.3c-18.7-0.8-32.2-15.2-32.2-35c-0.1-27.5,0-55.1-0.1-82.6c0-5.9-0.5-11.7-1.3-17.6
		c-2.7-20.1-15.4-31.8-35.1-32.8c-20.9-1.1-36.6,9.8-41.6,28.8c-1.7,6.5-2.2,13.1-2.2,19.9c0.1,28.3,0.3,56.7,0,85
		c-0.3,27.1-27.6,42.9-51.3,29.9c-11.4-6.2-17-16.3-17-28.9c-0.2-83.7-0.2-167.4,0-251c0.1-19.5,14.6-33.2,33.7-33.3
		c19.7-0.1,34.2,13.5,34.5,33.3c0.4,23,0.1,46,0.1,69C369.4,149.5,369.4,152.1,369.4,155.8z"/>
	<path class="st1" d="M22.8,203.9c0.3-34.5,11.1-72.1,42-101.8c28.3-27.2,63.2-39,101.6-41.2c26.4-1.5,52.2,2.1,76.7,12.8
		c11.9,5.2,19.5,14.1,20.6,27.3c1.9,22.4-17.4,37.5-39.7,31c-22.6-6.7-45.5-9.5-68.8-4.9c-38,7.5-59.9,34-62.9,75.2
		c-0.8,11.3-0.2,22.5,2.2,33.5c8.2,38,38.1,61.7,78.4,62.6c17.3,0.4,34-1.9,50.5-7c16.9-5.1,31.3,1.2,37.2,15.8
		c6.4,15.8,0.1,33.1-15.5,40.7c-54.4,26.2-135.7,19.9-182.9-29.2C33.3,288.6,22.8,251.7,22.8,203.9z"/>
	<path class="st2" d="M1155.7,106c-3.7,0-6.2,0-8.8,0c-41.4,0-82.9,0-124.3,0c-13.8,0-22.5-7.8-23-20.2c-0.5-12.9,8-22.1,21.9-22.2
		c59.1-0.3,118.2-0.2,177.3-0.1c8,0,15.7,1.4,19.9,9.4c4.3,8.2,0.8,15.4-3.8,22.4c-46.7,70.9-93.4,141.9-140.1,212.9
		c-1.4,2.1-3.5,4-3.7,7c2.7,1.8,5.7,0.9,8.4,0.9c39.6,0.1,79.1,0,118.7,0.1c4,0,8,0.3,11.9,1.2c10.3,2.3,17.2,12.3,16.2,22.7
		c-1.1,10.7-9.5,19.1-20.2,19.1c-61.5,0.1-123,0.2-184.5,0c-16.5-0.1-23.3-14.5-13.9-28.9c23-35.1,46.3-70,69.5-104.9
		c24.8-37.4,49.6-74.8,74.4-112.3C1152.9,111.1,1153.9,109.1,1155.7,106z"/>
	<path class="st2" d="M1365.3,265.2c-24.3,0-48.6,0.1-72.9-0.1c-6-0.1-7.3,1.5-5.8,7.4c7,27.1,24.2,43.7,51.4,48.9
		c27.2,5.2,50.8-2,68.4-24.7c1.1-1.5,2.2-3,3.3-4.5c8.2-10.7,18.9-12.8,28.5-5.7c9.2,6.8,11.7,20.5,4.7,30.1
		c-19.8,27.4-46.2,43.9-80.4,46.3c-34.9,2.4-66.8-5.5-91.7-31.1c-33.2-34.2-39.4-75.8-25.5-119.7c13.4-42.5,44.2-67.9,88.4-73.5
		c73.7-9.3,120.7,39.6,125.5,101.6c1.4,17.4-6.4,25.1-24,25.1C1411.8,265.2,1388.6,265.2,1365.3,265.2z"/>
	<path class="st2" d="M1650.9,336.6c-29.6,29.5-65,33-102.3,20.3c-31-10.6-46.3-35.4-51.1-67c-3.2-20.5-1.2-41.1-1.5-61.6
		c-0.3-21.1-0.1-42.2,0-63.3c0-14.7,9.1-24.6,22.6-24.9c14.2-0.3,23.9,9.7,23.9,25.2c0.1,33.9-0.3,67.9,0.1,101.8
		c0.3,20.4,5.8,38.8,25.5,49.3c34.4,18.3,75.1-1.7,81.9-40c1.5-8.2,1.6-16.5,1.6-24.7c0-28.6,0-57.2,0-85.8c0-15.8,9-25.8,23.3-25.8
		c14.3,0,23.2,9.8,23.3,25.8c0,55.9,0,111.7,0,167.6c0,16.5-7.4,26.5-20.5,27.5C1662.5,362.1,1653.5,353.9,1650.9,336.6z"/>
	<path class="st3" d="M860.9,265c0-21.4-0.2-42.8,0.1-64.1c0.1-5.4-1.7-6.7-6.8-6.7c-17.7,0-29.9-11.2-30.2-27.2
		c-0.3-15.8,11.6-28,29.2-28.6c6.4-0.2,8.2-2,7.8-8.1c-0.5-7.2-0.2-14.4-0.1-21.6c0.3-20.1,14.8-34.7,34.4-34.6
		c19.4,0.2,33.6,14.3,34,34.1c0.2,7.7,0.3,15.5-0.1,23.2c-0.2,5.1,1.1,7.1,6.5,6.8c6.6-0.4,13.4-0.4,20,0.6
		c15.1,2.1,25.7,15.5,24.4,29.8c-1.4,15.1-13,25.5-28.5,25.7c-5.1,0-10.2,0.4-15.2-0.1c-5.6-0.5-7.3,1.4-7.2,7.1
		c0.3,24.9,0.1,49.7,0.1,74.6c0,17.1,0.1,34.2,0,51.3c-0.1,21-14.1,35.2-34.4,35.1c-20.1-0.1-34-14.4-34-35.5
		C860.8,306.1,860.9,285.5,860.9,265z"/>
	<path class="st2" d="M1830.8,363.1c-31.8,0.3-57.9-6.9-78.3-28.8c-6-6.5-11.4-13.4-13.3-22.4c-2.5-11.7,2.9-23.1,13.2-27.1
		c10.2-4,20.2-0.6,26.1,10.8c15.7,30,47.9,32.6,72,25.2c9.6-2.9,16.6-8.9,17.5-19.6c0.9-10.4-5.9-16.2-14-20.5
		c-14.7-7.8-31.1-11.2-46.9-16c-12.3-3.7-24.2-8.2-35.5-14.4c-38.1-20.9-35.8-69.6-8.5-93c36.4-31.3,104.3-24.5,133.8,13.3
		c6.9,8.8,11.1,18.4,6,29.7c-5.6,12.4-19.4,15.6-29.9,7c-3-2.5-5.5-5.8-7.9-9c-14.4-18.5-32.7-25.8-55.8-20.4
		c-4.7,1.1-9.1,3.2-12.9,6.2c-11.1,8.7-10.9,22.3,0.8,30.2c10.6,7.2,22.9,10,34.9,13.5c15.6,4.5,31.4,8.4,46.2,15.5
		c24.5,11.8,38.2,30.5,36.3,58.4c-1.8,27.2-17.1,44.6-41.9,54.3C1858.2,361.7,1843.2,363.5,1830.8,363.1z"/>
	<path class="st4" d="M1693.3,400.4c0,9.2,0,18.5,0,27.7c0,3.3,0.1,7-4.4,7c-4.5,0.1-4.5-3.7-4.6-7c0-13.1,0-26.2,0-39.3
		c0-3,0.2-6.2,3.8-7.1c3.3-0.8,5.5,1.2,7.2,3.9c4.9,7.6,9.9,15.2,15.3,23.4c6.1-6.8,10-14.6,14.9-21.7c2.1-3,3.6-7.1,8.4-5.8
		c4.6,1.3,3.5,5.5,3.5,8.8c0.1,12.6,0,25.1,0,37.7c0,3.3,0.2,7-4.4,7c-4.4,0-4.6-3.6-4.6-7c0-9.3,0-18.5,0-29.9
		c-5,7.6-8.9,13.4-12.7,19.3c-3.3,5.1-6.4,5-9.6,0.1c-3.8-5.9-7.7-11.8-11.6-17.7C1694.2,400.1,1693.7,400.2,1693.3,400.4z"/>
	<path class="st5" d="M1482.8,408.3c0-6.7,0.1-13.3,0-20c-0.1-4.6,1.8-7,6.6-6.9c5.3,0.1,10.7-0.2,16,0.3c11.9,1,17.3,10.5,11.8,21
		c-1.6,3-1.1,4,0.9,6.4c8.5,10,3.6,23-9.3,25.4c-0.8,0.1-1.6,0.2-2.4,0.3C1482.8,436.9,1482.8,436.9,1482.8,408.3z"/>
	<path class="st6" d="M1938.5,133.2c-20-0.1-34.3-14.6-34-34.5c0.2-19.6,15.4-34.4,34.9-34c20.2,0.3,34.9,15.4,34.6,35.3
		C1973.6,119.3,1958.7,133.3,1938.5,133.2z"/>
	<path class="st5" d="M1647.5,416.1c0,4.7,0.1,9.5,0,14.2c-0.1,2.6-1.2,4.8-4.2,4.8c-3.3,0-4.6-2.1-4.6-5.3c0-14.2,0-28.3,0-42.5
		c0-4,2-5.9,5.9-5.9c5.1,0,10.2-0.2,15.2,0.2c9.5,0.6,15.2,5.7,16,13.7c0.9,9.3-2.8,14.5-12.5,17.7c-1.2,0.4-2.4,0.7-4.8,1.5
		c3.8,3.4,7.2,6.1,9.9,9.2c2.5,2.8,8.8,5.5,4.2,10c-4,4-6.9-1.6-9.6-4.1c-4.8-4.3-9.3-8.8-14-13.1
		C1648.7,416.3,1648.1,416.3,1647.5,416.1z"/>
	<path class="st7" d="M1758.5,426.9c7.9,0,14.6,0,21.2,0c3.2,0,6.3,0.6,6,4.6c-0.3,3.6-3.4,3.4-6.1,3.4c-9.4,0-18.7-0.1-28.1,0
		c-7.3,0.1-6.9-3.2-3.8-7.9c7.9-12,15.9-24,24.8-37.4c-8,0-14.8,0-21.5,0c-3.1,0-6.3-0.5-6.2-4.5c0.1-3.5,3.1-3.8,6-3.8
		c9.1,0,18.2-0.1,27.3,0c7.3,0.1,8.4,2,4.5,8c-7.2,11.2-14.7,22.3-22,33.5C1760,423.8,1759.6,424.8,1758.5,426.9z"/>
	<path class="st4" d="M1787.9,415.1c0.1-10.4,7.1-18.8,16.9-20.2c10.7-1.5,19.5,4.4,22.5,14.8c1.6,5.7,0.2,8.8-6.2,8.7
		c-6.4-0.1-12.8-0.1-19.2,0c-1.4,0-3.4-0.8-4.1,1.3c-0.6,1.7,0.6,3,1.6,4.3c4.2,5.3,11.6,5.7,17.7,0.5c2.3-1.9,4.6-5,7.3-2.1
		c3.2,3.5-0.1,6.5-2.7,8.7c-6.8,5.6-14.5,6.5-22.5,2.8C1791.2,430.2,1787.9,423.6,1787.9,415.1z"/>
	<path class="st7" d="M1614.8,380.8c4.6,0.7,9.6,0.6,13.4,4.1c1.3,1.2,2.6,2.9,1.5,5c-1.1,2.1-3,2-4.9,1.5c-2.3-0.6-4.6-1.6-6.9-1.8
		c-7.9-0.8-15.1,0.7-19.4,8.2c-4.2,7.4-4.1,15,0.7,22c5,7.2,12.5,8.5,20.7,6.9c0.5-0.1,1.1-0.2,1.6-0.3c2.9-0.9,6.8-3.7,8.2,0.7
		c1.4,4.5-3.2,6.3-6.7,7.3c-11.2,3.2-21.5,1.2-29.3-7.5c-8.2-9.1-8.6-20.1-4.2-30.8C1593.9,385.2,1603.5,381.5,1614.8,380.8z"/>
	<path class="st8" d="M1545.3,423.9c3.3-8.5,6.1-15.6,8.9-22.7c1.3-3.2,2.5-7.3,7.1-5.4c4.3,1.7,2.4,5.4,1.3,8.2
		c-5.9,14.5-12.1,29-18.1,43.4c-1.2,3-2.8,5.5-6.4,4.2c-3.4-1.2-3.3-4.5-1.8-6.7c6.3-9,2.1-17-1.8-25.1c-2.2-4.6-4.4-9.1-6-13.9
		c-1.2-3.3-5.3-7.8,0.7-10.1c5.1-2,5.9,3.1,7.3,6.4C1539.2,408.8,1541.9,415.5,1545.3,423.9z"/>
	<path class="st4" d="M1871.1,415.6c0,4.5,0.1,9.1,0,13.6c-0.1,3.2-1.9,7.3-4.8,5.5c-5-3-8.4-0.2-12.5,0.8
		c-9.6,2.2-18.6-4.2-19.3-14c-0.5-6.6-0.2-13.4-0.2-20c0-3.2,0.6-6.1,4.6-6c3.6,0.2,4,2.9,3.9,5.8c0,5.3-0.1,10.7,0,16
		c0.2,6.1,2.6,10.5,9.4,10.5c6.6-0.1,9.5-4.1,9.7-10.4c0.2-5.3,0.1-10.7,0.1-16c0-3.3,1-6.1,4.8-5.9c3.2,0.1,4.3,2.7,4.3,5.7
		C1871.1,406,1871.1,410.8,1871.1,415.6z"/>
	<path class="st4" d="M1894.7,394.8c4.5,0.4,9.7,2,12.7,7.6c0.9,1.8,1,3.5-0.6,5.1c-1.9,1.9-3.6,0.6-4.9-0.5
		c-2.8-2.4-5.3-5.3-9.7-4.7c-2.3,0.3-4.3,0.9-4.7,3.5c-0.4,2.4,1.7,3.1,3.4,3.8c4,1.5,8.1,2.6,12,4.2c4.7,1.9,7.1,5.5,6.8,10.6
		c-0.3,5.1-3.3,8.3-7.9,10c-7.9,3.1-18,1-22.1-4.6c-1.6-2.2-3.3-4.7-1-7.2c2.5-2.6,4.8-0.8,6.8,1.3c0.9,1,1.8,2,2.9,2.8
		c3.1,2.2,6.5,2,9.9,0.7c1.6-0.6,2.7-1.9,2.1-3.8c-1-3.4-4.5-3.4-7-4.6c-1.4-0.7-3.1-0.9-4.6-1.4c-6.4-2-11.4-5.2-10.1-13
		C1879.8,398.5,1885.6,394.7,1894.7,394.8z"/>
	<path class="st9" d="M2474.6,120.6c-3.8-2.3-5.1-4.3-6.4-8C2471.5,114.5,2473.4,116,2474.6,120.6z"/>
	<path class="st10" d="M2480.6,130c2.9,1.3,4.1,2.7,2.9,5.2C2481,134.5,2480.5,132.8,2480.6,130z"/>
	<path class="st11" d="M670.4,197.1c30.3,0,52.3,21.8,52.3,51.8c0,30.1-22,52.3-52,52.3c-31,0.1-52.8-21.3-53-52
		C617.4,218.9,639.3,197.1,670.4,197.1z"/>
	<path class="st11" d="M1349,229.5c-18.7,0-37.4-0.3-56.1,0.2c-6.9,0.2-7.4-2-5.6-7.7c7.7-23.9,24.1-37.8,48.2-43.2
		c33.8-7.6,66.5,11.2,76.1,43c1.8,5.8,1.3,8.1-5.6,7.9C1386.9,229.3,1367.9,229.5,1349,229.5z"/>
	<path class="st12" d="M1502,426.9c-9.7,0-14-7.2-10.5-14.5c1.3-2.6,13.9-2.6,17.9,0c2.9,1.9,4.3,4.8,3.7,8.2
		c-0.6,3.4-2.8,5.7-6.4,6.1C1504.6,426.9,1502.4,426.9,1502,426.9z"/>
	<path class="st12" d="M1498.2,389.4c6.8,0.1,12.5,0.4,12,7.6c-0.6,7.8-7.3,5.9-12.3,6.5c-6.3,0.8-6.3-2.8-6.7-7.6
		C1490.6,388.5,1495,389.2,1498.2,389.4z"/>
	<path class="st13" d="M1938.7,127c-15.8-0.1-28-12.1-28.1-27.7c-0.1-15.9,12.4-28.4,28.4-28.4c15.9,0,28.6,12.7,28.5,28.4
		C1967.5,115.4,1955.3,127.1,1938.7,127z"/>
	<path class="st14" d="M1647.5,397.6c-1.1-5.5,0.1-8.7,7.2-8.1c8.4,0.7,13.1,3.1,12.5,8.7c-0.8,8-7,7.8-13,8.5
		C1646.5,407.7,1647.1,402.8,1647.5,397.6z"/>
	<path class="st15" d="M1807.9,411.6c-0.8,0-1.6,0.2-2.4,0c-2.6-0.8-7.4,2.2-7.7-2.3c-0.2-3.8,4-5.9,7.8-6.6c2-0.3,4.3-0.3,6.2,0.4
		c3,1,6.6,3,6.2,6.3c-0.4,4.1-4.6,1.6-7.1,2.2C1810,411.8,1808.9,411.6,1807.9,411.6z"/>
	<path class="st16" d="M1939.4,103.5c3.7,2.9,6.4,4.7,8.6,7c1.8,1.8,5.9,3.9,2.4,7c-3.2,2.7-5.1-1.2-7-3.1c-3.4-3.4-6.5-7-11.1-12.1
		c0,4.9,0,8.1,0,11.3c0,2.4-1,4.4-3.4,4.6c-3.2,0.2-2.7-2.6-2.7-4.6c-0.1-9.9,0-19.7,0-29.6c0-1.9,0-3.7,1.9-4.9
		c3.9-2.3,20.5,0.2,23.6,3.6C1958.4,90.2,1954,99.2,1939.4,103.5z"/>
	<path class="st17" d="M1937,84.6c5.9,0,11,0.4,10.9,6.6c-0.1,5.4-4.6,6.2-9.2,6.6c-5.4,0.5-7-1.5-6.6-6.7
		C1932.4,86.8,1932.1,83,1937,84.6z"/>
</g>
</svg>
